<?xml version="1.0" encoding="utf-8"?>
<!-- Generator: Adobe Illustrator 18.0.0, SVG Export Plug-In . SVG Version: 6.00 Build 0)  -->
<!DOCTYPE svg PUBLIC "-//W3C//DTD SVG 1.1//EN" "http://www.w3.org/Graphics/SVG/1.1/DTD/svg11.dtd">
<svg version="1.1" id="Layer_1" xmlns="http://www.w3.org/2000/svg" xmlns:xlink="http://www.w3.org/1999/xlink" x="0px" y="0px"
	 viewBox="0 0 1112.1 691.9" enable-background="new 0 0 1112.1 691.9" xml:space="preserve">
<polygon fill="#5595DF" stroke="#5595DF" stroke-width="0.6345" stroke-linecap="round" stroke-linejoin="round" stroke-miterlimit="10" points="
	949,437.5 943.9,431.7 943.9,421.9 938.5,421.9 938.5,425.6 930.9,416.9 912.7,437.5 915.5,437.5 915.5,464.7 946.2,464.7 
	946.2,437.5 "/>
<polygon fill="#5595DF" stroke="#5595DF" stroke-width="0.6345" stroke-linecap="round" stroke-linejoin="round" stroke-miterlimit="10" points="
	857.7,437.5 852.6,431.7 852.6,421.9 847.2,421.9 847.2,425.6 839.5,416.9 821.4,437.5 824.2,437.5 824.2,464.7 854.8,464.7 
	854.8,437.5 "/>
<g>
	
		<rect x="1698.6" y="394" fill="#AC8B30" stroke="#AC8B30" stroke-width="1.797" stroke-miterlimit="10" width="69.7" height="65.3"/>
	<polygon fill="#E3C48F" stroke="#E3C48F" stroke-width="1.797" stroke-miterlimit="10" points="1698.6,394 1695.6,388 1772,388 
		1767.9,393.7 	"/>
	<circle fill="#E3C48F" stroke="#E3C48F" stroke-width="1.797" stroke-miterlimit="10" cx="1712" cy="414" r="5"/>
	<circle fill="#E3C48F" stroke="#E3C48F" stroke-width="1.797" stroke-miterlimit="10" cx="1733" cy="414" r="5"/>
	<circle fill="#E3C48F" stroke="#E3C48F" stroke-width="1.797" stroke-miterlimit="10" cx="1712" cy="434" r="5"/>
	<circle fill="#E3C48F" stroke="#E3C48F" stroke-width="1.797" stroke-miterlimit="10" cx="1733" cy="434" r="5"/>
</g>
<g>
	
		<rect x="1846.2" y="394" fill="#AC8B30" stroke="#AC8B30" stroke-width="1.089" stroke-miterlimit="10" width="69.7" height="65.3"/>
	<polygon fill="#E3C48F" stroke="#E3C48F" stroke-width="1.797" stroke-miterlimit="10" points="1847.1,394 1844.1,388 1920.5,388 
		1916.4,393.7 	"/>
	<circle fill="#E3C48F" stroke="#E3C48F" stroke-width="1.797" stroke-miterlimit="10" cx="1879.5" cy="414" r="5"/>
	<circle fill="#E3C48F" stroke="#E3C48F" stroke-width="1.797" stroke-miterlimit="10" cx="1900.5" cy="414" r="5"/>
	<circle fill="#E3C48F" stroke="#E3C48F" stroke-width="1.797" stroke-miterlimit="10" cx="1879.5" cy="434" r="5"/>
	<circle fill="#E3C48F" stroke="#E3C48F" stroke-width="1.797" stroke-miterlimit="10" cx="1900.5" cy="434" r="5"/>
</g>
<rect x="680.9" y="413" fill="#99BFEC" width="24.1" height="69.3"/>
<g>
	<defs>
		<rect id="SVGID_1_" x="-1042.5" y="8.3" width="984" height="633"/>
	</defs>
	<clipPath id="SVGID_2_">
		<use xlink:href="#SVGID_1_"  overflow="visible"/>
	</clipPath>
	
		<rect x="-1047.5" y="3.3" clip-path="url(#SVGID_2_)" fill-rule="evenodd" clip-rule="evenodd" fill="#2948A1" width="994" height="643"/>
</g>
<g>
	<defs>
		<path id="SVGID_3_" d="M-1042,8.3l-0.5,0.5h984L-59,8.3v56l0.5-0.5h-984l0.5,0.5V8.3z M-1043,8.3v56v0.5h0.5h984h0.5v-0.5v-56V7.8
			h-0.5h-984h-0.5V8.3z M-1063-12.2H-38v97h-1025V-12.2z"/>
	</defs>
	<clipPath id="SVGID_4_">
		<use xlink:href="#SVGID_3_"  overflow="visible"/>
	</clipPath>
	<g clip-path="url(#SVGID_4_)">
		<defs>
			<rect id="SVGID_5_" x="-1042.5" y="8.3" width="984" height="56"/>
		</defs>
		<clipPath id="SVGID_6_">
			<use xlink:href="#SVGID_5_"  overflow="visible"/>
		</clipPath>
		
			<rect x="-1042.5" y="8.3" opacity="0.4868" clip-path="url(#SVGID_6_)" fill-rule="evenodd" clip-rule="evenodd" fill="#FFFFFF" width="984" height="56"/>
	</g>
</g>
<g>
	<defs>
		<rect id="SVGID_7_" x="-1042.5" y="8.3" width="984" height="56"/>
	</defs>
	<clipPath id="SVGID_8_">
		<use xlink:href="#SVGID_7_"  overflow="visible"/>
	</clipPath>
	
		<rect x="-1042.5" y="8.3" clip-path="url(#SVGID_8_)" fill="none" stroke="#979797" stroke-width="2" stroke-miterlimit="10" width="984" height="56"/>
</g>
<g>
	<defs>
		
			<rect id="SVGID_9_" x="-1011.5" y="22.3" transform="matrix(-0.7071 -0.7071 0.7071 -0.7071 -1728.4365 -643.3954)" width="28" height="28"/>
	</defs>
	<clipPath id="SVGID_10_">
		<use xlink:href="#SVGID_9_"  overflow="visible"/>
	</clipPath>
	
		<rect x="-1016.5" y="17.3" transform="matrix(-0.7071 0.7071 -0.7071 -0.7071 -1677.1393 767.2396)" clip-path="url(#SVGID_10_)" fill-rule="evenodd" clip-rule="evenodd" fill="#7FDCBF" width="38" height="38"/>
</g>
<text transform="matrix(1 0 0 1 -756.7893 148.2734)" fill="#000853" font-family="'MissionGothic-Black'" font-size="34">Puerto Rico Education Data</text>
<text transform="matrix(1 0 0 1 -716.47 556.2735)" fill="#000853" font-family="'MissionGothic-Black'" font-size="32">(Choose 2)</text>
<text transform="matrix(1 0 0 1 -689.47 219.2734)" fill="#001652" font-family="'MissionGothic-Bold'" font-size="27">GPA</text>
<text transform="matrix(1 0 0 1 -967.47 44.2275)" fill="#001652" font-family="'MissionGothic-Bold'" font-size="27">Home</text>
<text transform="matrix(1 0 0 1 -689.47 268.2734)" fill="#001652" font-family="'MissionGothic-Bold'" font-size="27">Distance</text>
<text transform="matrix(1 0 0 1 -689.47 316.2734)" fill="#001652" font-family="'MissionGothic-Bold'" font-size="27">Gender</text>
<text transform="matrix(1 0 0 1 -689.47 364.2734)" fill="#001652" font-family="'MissionGothic-Bold'" font-size="27">Campus</text>
<text transform="matrix(1 0 0 1 -689.47 412.2734)" fill="#001652" font-family="'MissionGothic-Bold'" font-size="27">Hometown</text>
<text transform="matrix(1 0 0 1 -689.47 460.2734)" fill="#001652" font-family="'MissionGothic-Bold'" font-size="27">High School</text>
<text transform="matrix(1 0 0 1 -689.47 508.2734)" fill="#001652" font-family="'MissionGothic-Bold'" font-size="27">Major</text>
<g>
	<defs>
		<rect id="SVGID_11_" x="-615.5" y="193.3" width="33" height="34"/>
	</defs>
	<clipPath id="SVGID_12_">
		<use xlink:href="#SVGID_11_"  overflow="visible"/>
	</clipPath>
	
		<rect x="-620.5" y="188.3" clip-path="url(#SVGID_12_)" fill-rule="evenodd" clip-rule="evenodd" fill="#5595DF" width="43" height="44"/>
</g>
<g>
	<defs>
		<rect id="SVGID_13_" x="-680.5" y="581.3" width="134" height="41"/>
	</defs>
	<clipPath id="SVGID_14_">
		<use xlink:href="#SVGID_13_"  overflow="visible"/>
	</clipPath>
	
		<rect x="-685.5" y="576.3" clip-path="url(#SVGID_14_)" fill-rule="evenodd" clip-rule="evenodd" fill="#5595DF" width="144" height="51"/>
</g>
<text transform="matrix(1 0 0 1 -666.47 609.2734)" fill="#001652" font-family="'MissionGothic-Bold'" font-size="27">Compare</text>
<g>
	<defs>
		<rect id="SVGID_15_" x="-615.5" y="193.3" width="33" height="6"/>
	</defs>
	<clipPath id="SVGID_16_">
		<use xlink:href="#SVGID_15_"  overflow="visible"/>
	</clipPath>
	
		<rect x="-620.5" y="188.3" clip-path="url(#SVGID_16_)" fill-rule="evenodd" clip-rule="evenodd" fill="#FFFFFF" width="43" height="16"/>
</g>
<g>
	<defs>
		<rect id="SVGID_17_" x="-598.5" y="205.3" width="12" height="6"/>
	</defs>
	<clipPath id="SVGID_18_">
		<use xlink:href="#SVGID_17_"  overflow="visible"/>
	</clipPath>
	
		<rect x="-603.5" y="200.3" clip-path="url(#SVGID_18_)" fill-rule="evenodd" clip-rule="evenodd" fill="#2948A1" width="22" height="16"/>
</g>
<g>
	<defs>
		<rect id="SVGID_19_" x="-598.5" y="215.3" width="12" height="6"/>
	</defs>
	<clipPath id="SVGID_20_">
		<use xlink:href="#SVGID_19_"  overflow="visible"/>
	</clipPath>
	
		<rect x="-603.5" y="210.3" clip-path="url(#SVGID_20_)" fill-rule="evenodd" clip-rule="evenodd" fill="#2948A1" width="22" height="16"/>
</g>
<g>
	<defs>
		<circle id="SVGID_21_" cx="-559.5" cy="258.3" r="17"/>
	</defs>
	<clipPath id="SVGID_22_">
		<use xlink:href="#SVGID_21_"  overflow="visible"/>
	</clipPath>
	
		<rect x="-581.5" y="236.3" clip-path="url(#SVGID_22_)" fill-rule="evenodd" clip-rule="evenodd" fill="#5595DF" width="44" height="44"/>
</g>
<rect x="60.7" y="325" fill-rule="evenodd" clip-rule="evenodd" fill="none" width="132.9" height="57.4"/>
<text transform="matrix(1 0 0 1 60.7031 346.2577)" font-family="'GothamHTF-Book'" font-size="30">GPA</text>
<rect x="1016.7" y="325" fill-rule="evenodd" clip-rule="evenodd" fill="none" width="132.9" height="57.4"/>
<text transform="matrix(1 0 0 1 1016.7031 346.2577)" font-family="'GothamHTF-Book'" font-size="30">IGS</text>
<rect x="169.4" y="325" fill-rule="evenodd" clip-rule="evenodd" fill="none" width="188.9" height="57.4"/>
<text transform="matrix(1 0 0 1 169.4189 346.2577)" font-family="'GothamHTF-Book'" font-size="30">Distance</text>
<rect x="327.3" y="325" fill-rule="evenodd" clip-rule="evenodd" fill="none" width="122.3" height="57.4"/>
<text transform="matrix(1 0 0 1 327.3 346.2577)" font-family="'GothamHTF-Book'" font-size="30">Gender</text>
<rect x="477.6" y="325" fill-rule="evenodd" clip-rule="evenodd" fill="none" width="138.5" height="57.4"/>
<text transform="matrix(1 0 0 1 477.5847 346.2577)" font-family="'GothamHTF-Book'" font-size="30">Campus</text>
<rect x="650.7" y="325" fill-rule="evenodd" clip-rule="evenodd" fill="none" width="132.9" height="57.4"/>
<text transform="matrix(1 0 0 1 650.6581 346.2577)" font-family="'GothamHTF-Book'" font-size="30">Major</text>
<rect x="802.5" y="325" fill-rule="evenodd" clip-rule="evenodd" fill="none" width="244.8" height="57.4"/>
<text transform="matrix(1 0 0 1 802.5401 346.2577)" font-family="'GothamHTF-Book'" font-size="30">Hometown</text>
<rect x="54.7" y="108.6" fill-rule="evenodd" clip-rule="evenodd" fill="#5595DF" width="76.9" height="76.9"/>
<rect x="61.4" y="409.6" fill-rule="evenodd" clip-rule="evenodd" fill="#99BFEC" stroke="#5595DF" stroke-width="3" stroke-miterlimit="10" width="72.9" height="93.9"/>
<rect x="0" y="0" fill-rule="evenodd" clip-rule="evenodd" fill="#5595DF" width="1122.2" height="54"/>
<rect x="140.9" y="108.6" fill-rule="evenodd" clip-rule="evenodd" fill="#30AC92" width="76.9" height="76.9"/>
<rect x="227.1" y="108.6" fill-rule="evenodd" clip-rule="evenodd" fill="#5F7973" width="76.9" height="76.9"/>
<rect x="313.2" y="108.6" fill-rule="evenodd" clip-rule="evenodd" fill="#E3C48F" width="76.9" height="76.9"/>
<rect x="399.4" y="108.6" fill-rule="evenodd" clip-rule="evenodd" fill="#AC8B30" width="76.9" height="76.9"/>
<rect x="485.6" y="108.6" fill-rule="evenodd" clip-rule="evenodd" fill="#79725F" width="76.9" height="76.9"/>
<g>
	<path fill="#5595DF" d="M75.1,449.8v-4h14.2v3.5l-5.3,5.1c2.9,0.5,5.6,2,5.6,5.9c0,4-2.9,6.9-7.6,6.9c-3.8,0-6.4-1.5-8.2-3.6l3.2-3
		c1.4,1.6,2.9,2.5,5.1,2.5c1.7,0,3-1,3-2.6c0-1.7-1.5-2.7-4.1-2.7H79l-0.7-2.9l5-5H75.1z"/>
	<path fill="#5595DF" d="M93.2,466.9v-4.8h4.9v4.8H93.2z"/>
	<path fill="#5595DF" d="M110.2,467.2c-5.6,0-9.3-4.7-9.3-10.8c0-6.1,3.7-10.9,9.4-10.9s9.3,4.7,9.3,10.8S115.8,467.2,110.2,467.2z
		 M110.2,449.7c-2.8,0-4.6,2.8-4.6,6.7s1.8,6.7,4.6,6.7s4.6-2.8,4.6-6.7S113,449.7,110.2,449.7z"/>
</g>
<line fill="none" stroke="#5595DF" stroke-width="1.7703" stroke-linecap="round" stroke-linejoin="round" stroke-miterlimit="10" x1="70.2" y1="434" x2="108.2" y2="434"/>
<line fill="none" stroke="#5595DF" stroke-width="1.7703" stroke-linecap="round" stroke-linejoin="round" stroke-miterlimit="10" x1="70.2" y1="423.5" x2="108.2" y2="423.5"/>
<line fill="none" stroke="#5595DF" stroke-width="1.7703" stroke-linecap="round" stroke-linejoin="round" stroke-miterlimit="10" x1="116.2" y1="434" x2="125.2" y2="434"/>
<g>
	
		<line fill="none" stroke="#5595DF" stroke-width="1.7703" stroke-linecap="round" stroke-linejoin="round" stroke-miterlimit="10" x1="116.2" y1="423.5" x2="125.2" y2="423.5"/>
	
		<line fill="none" stroke="#5595DF" stroke-width="1.7703" stroke-linecap="round" stroke-linejoin="round" stroke-miterlimit="10" x1="120.8" y1="419" x2="120.8" y2="428"/>
</g>
<line fill="none" stroke="#5595DF" stroke-width="1.7703" stroke-linecap="round" stroke-linejoin="round" stroke-miterlimit="10" x1="70.2" y1="490.2" x2="108.2" y2="490.2"/>
<line fill="none" stroke="#5595DF" stroke-width="1.7703" stroke-linecap="round" stroke-linejoin="round" stroke-miterlimit="10" x1="70.2" y1="479.8" x2="108.2" y2="479.8"/>
<line fill="none" stroke="#5595DF" stroke-width="1.7703" stroke-linecap="round" stroke-linejoin="round" stroke-miterlimit="10" x1="116.2" y1="490.2" x2="125.2" y2="490.2"/>
<g>
	
		<line fill="none" stroke="#5595DF" stroke-width="1.7703" stroke-linecap="round" stroke-linejoin="round" stroke-miterlimit="10" x1="116.2" y1="479.8" x2="125.2" y2="479.8"/>
	
		<line fill="none" stroke="#5595DF" stroke-width="1.7703" stroke-linecap="round" stroke-linejoin="round" stroke-miterlimit="10" x1="120.8" y1="475.2" x2="120.8" y2="484.2"/>
</g>
<rect x="1009.1" y="399.6" fill-rule="evenodd" clip-rule="evenodd" fill="#99BFEC" stroke="#5595DF" stroke-width="3" stroke-miterlimit="10" width="72.9" height="93.9"/>
<line fill="none" stroke="#5595DF" stroke-width="2.1395" stroke-linecap="round" stroke-linejoin="round" stroke-miterlimit="10" x1="1018" y1="424" x2="1073.5" y2="424"/>
<line fill="none" stroke="#5595DF" stroke-width="2.1395" stroke-linecap="round" stroke-linejoin="round" stroke-miterlimit="10" x1="1018" y1="413.5" x2="1073.5" y2="413.5"/>
<line fill="none" stroke="#5595DF" stroke-width="2.1395" stroke-linecap="round" stroke-linejoin="round" stroke-miterlimit="10" x1="1018" y1="480.2" x2="1073.5" y2="480.2"/>
<line fill="none" stroke="#5595DF" stroke-width="2.1395" stroke-linecap="round" stroke-linejoin="round" stroke-miterlimit="10" x1="1018" y1="469.8" x2="1073.5" y2="469.8"/>
<line fill="none" stroke="#5595DF" stroke-width="2" stroke-linecap="round" stroke-linejoin="round" stroke-miterlimit="10" x1="70.2" y1="586.8" x2="118.8" y2="586.8"/>
<line fill="none" stroke="#5595DF" stroke-width="2" stroke-linecap="round" stroke-linejoin="round" stroke-miterlimit="10" x1="70.2" y1="578.2" x2="118.8" y2="578.2"/>
<line fill="none" stroke="#5595DF" stroke-width="2" stroke-linecap="round" stroke-linejoin="round" stroke-miterlimit="10" x1="70.2" y1="569.8" x2="118.8" y2="569.8"/>
<path fill="#99BFEC" d="M369.4,424h-5.8c4.2-2.9,7-8,7-13.8c0-9-6.7-16.4-15-16.4c-8.3,0-15,7.3-15,16.4c0,5.8,2.8,10.9,7,13.8h-5.8
	c-3.8,0-6.9,2.9-6.9,6.6v39.8c0,2.6,1.6,4.8,3.8,5.9v18.4c0,3,2.5,5.4,5.6,5.4h22.5c3.1,0,5.6-2.4,5.6-5.4v-18.4
	c2.3-1.1,3.8-3.3,3.8-5.9v-39.8C376.2,426.9,373.2,424,369.4,424z"/>
<path fill="#5595DF" d="M424.4,424h-5.8c4.2-2.9,7-8,7-13.8c0-9-6.7-16.4-15-16.4c-8.3,0-15,7.3-15,16.4c0,5.8,2.8,10.9,7,13.8h-5.8
	c-3.8,0-6.9,2.9-6.9,6.6v39.8c0,2.6,1.6,4.8,3.8,5.9v18.4c0,3,2.5,5.4,5.6,5.4h22.5c3.1,0,5.6-2.4,5.6-5.4v-18.4
	c2.3-1.1,3.8-3.3,3.8-5.9v-39.8C431.2,426.9,428.2,424,424.4,424z"/>
<g>
	<path fill="#99BFEC" d="M206.5,416.3c-14.8,0-26.9,12-26.9,26.9c0,0.3,0,0.6,0,1c0.1,2.8,0.6,5.5,1.5,8.1
		c5.7,18.8,25.3,43.4,25.3,43.4s19.6-24.6,25.3-43.4c0.9-2.5,1.4-5.2,1.5-8.1c0-0.3,0-0.6,0-1C233.4,428.4,221.4,416.3,206.5,416.3z
		 M206.5,456.4c-7.3,0-13.2-5.9-13.2-13.2c0-7.3,5.9-13.2,13.2-13.2c7.3,0,13.2,5.9,13.2,13.2C219.7,450.5,213.8,456.4,206.5,456.4z
		"/>
</g>
<g>
	<path fill="#5595DF" stroke="#5595DF" stroke-width="1.12" stroke-miterlimit="10" d="M279.8,395c-7,0-12.6,5.7-12.6,12.6
		c0,0.1,0,0.3,0,0.5c0,1.3,0.3,2.6,0.7,3.8c2.7,8.9,11.9,20.4,11.9,20.4s9.2-11.6,11.9-20.4c0.4-1.2,0.7-2.5,0.7-3.8
		c0-0.2,0-0.3,0-0.5C292.5,400.7,286.8,395,279.8,395z M279.8,413.8c-3.4,0-6.2-2.8-6.2-6.2c0-3.4,2.8-6.2,6.2-6.2
		c3.4,0,6.2,2.8,6.2,6.2C286,411.1,283.2,413.8,279.8,413.8z"/>
</g>
<g>
	<g>
		<path fill="none" stroke="#99BFEC" stroke-width="3.4947" stroke-linecap="round" stroke-miterlimit="10" d="M219.7,495.7
			c0,0,1.6-0.5,4.1-1.5"/>
		
			<path fill="none" stroke="#99BFEC" stroke-width="3.4947" stroke-linecap="round" stroke-miterlimit="10" stroke-dasharray="9.3238,9.3238" d="
			M232.3,490.5c12.5-6.1,28.6-17,18.8-30.4c-8.3-11.4,3.2-15.2,13.4-17.6"/>
		<path fill="none" stroke="#99BFEC" stroke-width="3.4947" stroke-linecap="round" stroke-miterlimit="10" d="M269,441.4
			c1.6-0.4,3-0.7,4.2-1.1"/>
	</g>
</g>
<rect x="656.2" y="419.7" fill="#5595DF" stroke="#5595DF" stroke-width="0.6345" stroke-linecap="round" stroke-linejoin="round" stroke-miterlimit="10" width="22.3" height="62.7"/>
<rect x="707.4" y="419.7" fill="#5595DF" stroke="#5595DF" stroke-width="0.6345" stroke-linecap="round" stroke-linejoin="round" stroke-miterlimit="10" width="22.3" height="62.7"/>
<rect x="732.1" y="424.5" fill="#99BFEC" width="24.1" height="57.8"/>
<polygon fill="#5595DF" stroke="#5595DF" stroke-width="1.12" stroke-linecap="round" stroke-linejoin="round" stroke-miterlimit="10" points="
	617.5,720.3 573.8,755 617.5,755 661.2,755 "/>
<rect x="572.8" y="815.3" fill="#5595DF" stroke="#5595DF" stroke-width="1.12" stroke-miterlimit="10" width="89.3" height="10.7"/>
<rect x="572.8" y="801.3" fill="#5595DF" stroke="#5595DF" stroke-width="1.12" stroke-miterlimit="10" width="89.3" height="10.7"/>
<line fill="none" stroke="#99BFEC" stroke-width="1.12" stroke-linecap="round" stroke-linejoin="round" stroke-miterlimit="10" x1="659.5" y1="426.2" x2="675.2" y2="426.2"/>
<line fill="none" stroke="#99BFEC" stroke-width="1.12" stroke-linecap="round" stroke-linejoin="round" stroke-miterlimit="10" x1="659.5" y1="429.2" x2="675.2" y2="429.2"/>
<line fill="none" stroke="#99BFEC" stroke-width="1.12" stroke-linecap="round" stroke-linejoin="round" stroke-miterlimit="10" x1="659.5" y1="473.5" x2="675.2" y2="473.5"/>
<line fill="none" stroke="#99BFEC" stroke-width="1.12" stroke-linecap="round" stroke-linejoin="round" stroke-miterlimit="10" x1="659.5" y1="476.8" x2="675.2" y2="476.8"/>
<line fill="none" stroke="#99BFEC" stroke-width="1.12" stroke-linecap="round" stroke-linejoin="round" stroke-miterlimit="10" x1="710.7" y1="429.2" x2="726.4" y2="429.2"/>
<line fill="none" stroke="#99BFEC" stroke-width="1.12" stroke-linecap="round" stroke-linejoin="round" stroke-miterlimit="10" x1="710.7" y1="473.5" x2="726.4" y2="473.5"/>
<g>
	
		<line fill="none" stroke="#5595DF" stroke-width="1.12" stroke-linecap="round" stroke-linejoin="round" stroke-miterlimit="10" x1="693.1" y1="420.8" x2="693.1" y2="475.2"/>
	
		<line fill="none" stroke="#5595DF" stroke-width="1.12" stroke-linecap="round" stroke-linejoin="round" stroke-miterlimit="10" x1="697.8" y1="420.8" x2="697.8" y2="475.2"/>
	
		<line fill="none" stroke="#5595DF" stroke-width="1.12" stroke-linecap="round" stroke-linejoin="round" stroke-miterlimit="10" x1="688.1" y1="420.8" x2="688.1" y2="475.2"/>
</g>
<rect x="738" y="431.2" fill="none" stroke="#5595DF" stroke-width="1.12" stroke-linecap="round" stroke-linejoin="round" stroke-miterlimit="10" width="12.2" height="44.5"/>
<g>
	<g>
		<rect x="576.5" y="759" fill="#99BFEC" width="10" height="39.3"/>
		<rect x="600.5" y="759" fill="#99BFEC" width="10" height="39.3"/>
		<rect x="624.5" y="759" fill="#99BFEC" width="10" height="39.3"/>
		<rect x="648.5" y="759" fill="#99BFEC" width="10" height="39.3"/>
	</g>
	
		<line fill="none" stroke="#5595DF" stroke-width="1.12" stroke-linecap="round" stroke-linejoin="round" stroke-miterlimit="10" x1="579.8" y1="761.3" x2="579.8" y2="795.8"/>
	
		<line fill="none" stroke="#5595DF" stroke-width="1.12" stroke-linecap="round" stroke-linejoin="round" stroke-miterlimit="10" x1="583.2" y1="761.3" x2="583.2" y2="795.8"/>
	
		<line fill="none" stroke="#5595DF" stroke-width="1.12" stroke-linecap="round" stroke-linejoin="round" stroke-miterlimit="10" x1="603.8" y1="761.3" x2="603.8" y2="795.8"/>
	
		<line fill="none" stroke="#5595DF" stroke-width="1.12" stroke-linecap="round" stroke-linejoin="round" stroke-miterlimit="10" x1="607.2" y1="761.3" x2="607.2" y2="795.8"/>
	
		<line fill="none" stroke="#5595DF" stroke-width="1.12" stroke-linecap="round" stroke-linejoin="round" stroke-miterlimit="10" x1="627.8" y1="761.3" x2="627.8" y2="795.8"/>
	
		<line fill="none" stroke="#5595DF" stroke-width="1.12" stroke-linecap="round" stroke-linejoin="round" stroke-miterlimit="10" x1="631.2" y1="761.3" x2="631.2" y2="795.8"/>
	
		<line fill="none" stroke="#5595DF" stroke-width="1.12" stroke-linecap="round" stroke-linejoin="round" stroke-miterlimit="10" x1="651.8" y1="761.3" x2="651.8" y2="795.8"/>
	
		<line fill="none" stroke="#5595DF" stroke-width="1.12" stroke-linecap="round" stroke-linejoin="round" stroke-miterlimit="10" x1="655.2" y1="761.3" x2="655.2" y2="795.8"/>
</g>
<rect x="854.9" y="418.7" fill="#99BFEC" stroke="#99BFEC" stroke-miterlimit="10" width="64" height="60"/>
<path fill="#5595DF" stroke="#5595DF" stroke-width="1.12" stroke-linecap="round" stroke-linejoin="round" stroke-miterlimit="10" d="
	M864.7,467c-0.6,0-1.2,0.1-1.8,0.3c-1.4-3.3-4.7-5.6-8.5-5.6c-2.1,0-4,0.7-5.6,1.9c-0.6-0.1-1.2-0.2-1.9-0.2c-4.7,0-8.5,3.8-8.5,8.5
	s3.8,8.5,8.5,8.5c1.3,0,2.5-0.3,3.7-0.8c1.2,0.5,2.5,0.8,3.8,0.8c2.1,0,4.1-0.7,5.7-1.9c1.2,1.2,2.9,1.9,4.7,1.9
	c3.7,0,6.7-3,6.7-6.7C871.3,470,868.3,467,864.7,467z"/>
<path fill="#5595DF" stroke="#5595DF" stroke-width="1.12" stroke-linecap="round" stroke-linejoin="round" stroke-miterlimit="10" d="
	M907,468c0.6,0,1.2,0.1,1.8,0.3c1.4-3.3,4.7-5.6,8.5-5.6c2.1,0,4,0.7,5.6,1.9c0.6-0.1,1.2-0.2,1.9-0.2c4.7,0,8.5,3.8,8.5,8.5
	s-3.8,8.5-8.5,8.5c-1.3,0-2.5-0.3-3.7-0.8c-1.2,0.5-2.5,0.8-3.8,0.8c-2.1,0-4.1-0.7-5.7-1.9c-1.2,1.2-2.9,1.9-4.7,1.9
	c-3.7,0-6.7-3-6.7-6.7C900.3,471,903.3,468,907,468z"/>
<polygon fill="#5595DF" stroke="#5595DF" stroke-width="1.3255" stroke-linecap="round" stroke-linejoin="round" stroke-miterlimit="10" points="
	914.2,409.8 914.2,389.3 902.9,389.3 902.9,397.1 886.9,378.9 849.1,421.9 886.9,421.9 924.8,421.9 "/>
<rect x="878.1" y="451.6" fill="#5595DF" stroke="#5595DF" stroke-width="1.8334" stroke-linecap="round" stroke-linejoin="round" stroke-miterlimit="10" width="17.7" height="26.9"/>
<rect x="1218.5" y="493" fill-rule="evenodd" clip-rule="evenodd" fill="none" width="244.8" height="57.4"/>
<text transform="matrix(1 0 0 1 1218.548 514.2577)" font-family="'GothamHTF-Book'" font-size="30">Hometown</text>
<rect x="1186.8" y="108.6" fill-rule="evenodd" clip-rule="evenodd" fill="#5595DF" width="76.9" height="76.9"/>
<rect x="1132.1" y="0" fill-rule="evenodd" clip-rule="evenodd" fill="#5595DF" width="1122.2" height="54"/>
<rect x="1273" y="108.6" fill-rule="evenodd" clip-rule="evenodd" fill="#30AC92" width="76.9" height="76.9"/>
<rect x="1359.2" y="108.6" fill-rule="evenodd" clip-rule="evenodd" fill="#5F7973" width="76.9" height="76.9"/>
<rect x="1445.3" y="108.6" fill-rule="evenodd" clip-rule="evenodd" fill="#E3C48F" width="76.9" height="76.9"/>
<rect x="1531.5" y="108.6" fill-rule="evenodd" clip-rule="evenodd" fill="#AC8B30" width="76.9" height="76.9"/>
<rect x="1617.7" y="108.6" fill-rule="evenodd" clip-rule="evenodd" fill="#79725F" width="76.9" height="76.9"/>
<rect x="1257.8" y="363.8" fill="#99BFEC" stroke="#99BFEC" stroke-width="1.4265" stroke-miterlimit="10" width="91.3" height="85.6"/>
<path fill="#30AC92" d="M1271.6,432.7c-0.9,0-1.7,0.1-2.6,0.4c-2.1-4.7-6.7-8-12.2-8c-3,0-5.8,1-8,2.7c-0.9-0.2-1.8-0.3-2.7-0.3
	c-6.7,0-12.1,5.4-12.1,12.1c0,6.7,5.4,12.1,12.1,12.1c1.9,0,3.6-0.4,5.2-1.2c1.7,0.8,3.5,1.2,5.5,1.2c3,0,5.8-1,8.1-2.7
	c1.7,1.7,4.1,2.7,6.7,2.7c5.3,0,9.5-4.3,9.5-9.5C1281.2,437,1276.9,432.7,1271.6,432.7z"/>
<path fill="#30AC92" d="M1332,434.2c0.9,0,1.7,0.1,2.6,0.4c2.1-4.7,6.7-8,12.2-8c3,0,5.8,1,8,2.7c0.9-0.2,1.8-0.3,2.7-0.3
	c6.7,0,12.1,5.4,12.1,12.1c0,6.7-5.4,12.1-12.1,12.1c-1.9,0-3.6-0.4-5.2-1.2c-1.7,0.8-3.5,1.2-5.5,1.2c-3,0-5.8-1-8.1-2.7
	c-1.7,1.7-4.1,2.7-6.7,2.7c-5.3,0-9.5-4.3-9.5-9.5C1322.5,438.4,1326.8,434.2,1332,434.2z"/>
<polygon fill="#5595DF" stroke="#5595DF" stroke-width="1.8908" stroke-linecap="round" stroke-linejoin="round" stroke-miterlimit="10" points="
	1342.2,351.2 1342.2,321.8 1326.2,321.8 1326.2,333 1303.4,307.1 1249.4,368.4 1303.4,368.4 1357.4,368.4 "/>
<rect x="1290.8" y="410.7" fill="#5595DF" stroke="#5595DF" stroke-width="2.6154" stroke-linecap="round" stroke-linejoin="round" stroke-miterlimit="10" width="25.3" height="38.4"/>
<rect x="1748.9" y="357.5" fill="#E3C48F" stroke="#E3C48F" stroke-width="1.797" stroke-miterlimit="10" width="115" height="101.8"/>
<polygon fill="#AC8B30" stroke="#AC8B30" stroke-width="2.1626" stroke-linecap="round" stroke-linejoin="round" stroke-miterlimit="10" points="
	1747.6,357 1744.7,351 1868.1,351 1863.9,356.7 "/>
<g>
	
		<rect x="1776.2" y="422.8" fill="#AC8B30" stroke="#AC8B30" stroke-width="0.7561" stroke-miterlimit="10" width="60.3" height="7.2"/>
	<g>
		<rect x="1778.7" y="429.3" fill="#AC8B30" stroke="#AC8B30" stroke-miterlimit="10" width="6.8" height="30.6"/>
		<rect x="1794.9" y="429.3" fill="#AC8B30" stroke="#AC8B30" stroke-miterlimit="10" width="6.8" height="30.6"/>
		<rect x="1811.1" y="429.3" fill="#AC8B30" stroke="#AC8B30" stroke-miterlimit="10" width="6.8" height="30.6"/>
		<rect x="1827.3" y="429.3" fill="#AC8B30" stroke="#AC8B30" stroke-miterlimit="10" width="6.8" height="30.6"/>
	</g>
</g>
<g>
	<circle fill="#AC8B30" stroke="#AC8B30" stroke-width="1.089" stroke-miterlimit="10" cx="1774.4" cy="378" r="5"/>
	<circle fill="#AC8B30" stroke="#AC8B30" stroke-width="1.089" stroke-miterlimit="10" cx="1795.4" cy="378" r="5"/>
	<circle fill="#AC8B30" stroke="#AC8B30" stroke-width="1.089" stroke-miterlimit="10" cx="1774.4" cy="398" r="5"/>
	<circle fill="#AC8B30" stroke="#AC8B30" stroke-width="1.089" stroke-miterlimit="10" cx="1795.4" cy="398" r="5"/>
	<circle fill="#AC8B30" stroke="#AC8B30" stroke-width="1.089" stroke-miterlimit="10" cx="1817.4" cy="378" r="5"/>
	<circle fill="#AC8B30" stroke="#AC8B30" stroke-width="1.089" stroke-miterlimit="10" cx="1838.4" cy="378" r="5"/>
	<circle fill="#AC8B30" stroke="#AC8B30" stroke-width="1.089" stroke-miterlimit="10" cx="1817.4" cy="398" r="5"/>
	<circle fill="#AC8B30" stroke="#AC8B30" stroke-width="1.089" stroke-miterlimit="10" cx="1838.4" cy="398" r="5"/>
</g>
<path fill="#79725F" stroke="#79725F" stroke-width="0.8401" stroke-miterlimit="10" d="M1868.3,421.2h-4.9
	c3.5-2.4,5.9-6.7,5.9-11.6c0-7.6-5.6-13.8-12.6-13.8c-7,0-12.6,6.2-12.6,13.8c0,4.9,2.3,9.2,5.9,11.6h-4.9c-3.2,0-5.8,2.5-5.8,5.5
	v33.5c0,2.2,1.3,4,3.2,4.9v13.5c0,2.5,2.1,4.5,4.7,4.5h18.9c2.6,0,4.7-2,4.7-4.5v-13.5c1.9-0.9,3.2-2.8,3.2-4.9v-33.5
	C1874.1,423.6,1871.5,421.2,1868.3,421.2z"/>
<rect x="1870" y="441.3" transform="matrix(0.9755 0.22 -0.22 0.9755 145.8246 -401.2203)" fill="#E3C48F" stroke="#E3C48F" stroke-width="1.8908" stroke-linecap="round" stroke-linejoin="round" stroke-miterlimit="10" width="8" height="25.3"/>
<rect x="475.2" y="444.1" fill="#99BFEC" stroke="#99BFEC" stroke-width="1.1778" stroke-miterlimit="10" width="45.7" height="42.8"/>
<polygon fill="#5595DF" stroke="#5595DF" stroke-width="1.1778" stroke-miterlimit="10" points="475.2,444.1 473.3,440.2 
	523.3,440.2 520.6,443.9 "/>
<circle fill="#5595DF" stroke="#5595DF" stroke-width="1.1778" stroke-miterlimit="10" cx="484" cy="457.2" r="3.3"/>
<circle fill="#5595DF" stroke="#5595DF" stroke-width="1.1778" stroke-miterlimit="10" cx="497.8" cy="457.2" r="3.3"/>
<circle fill="#5595DF" stroke="#5595DF" stroke-width="1.1778" stroke-miterlimit="10" cx="484" cy="470.3" r="3.3"/>
<circle fill="#5595DF" stroke="#5595DF" stroke-width="1.1778" stroke-miterlimit="10" cx="497.8" cy="470.3" r="3.3"/>
<rect x="571.9" y="444.1" fill="#99BFEC" stroke="#99BFEC" stroke-width="0.7137" stroke-miterlimit="10" width="45.7" height="42.8"/>
<polygon fill="#5595DF" stroke="#5595DF" stroke-width="1.1778" stroke-miterlimit="10" points="572.5,444.1 570.6,440.2 
	620.7,440.2 618,443.9 "/>
<circle fill="#5595DF" stroke="#5595DF" stroke-width="1.1778" stroke-miterlimit="10" cx="593.8" cy="457.2" r="3.3"/>
<circle fill="#5595DF" stroke="#5595DF" stroke-width="1.1778" stroke-miterlimit="10" cx="607.6" cy="457.2" r="3.3"/>
<circle fill="#5595DF" stroke="#5595DF" stroke-width="1.1778" stroke-miterlimit="10" cx="593.8" cy="470.3" r="3.3"/>
<circle fill="#5595DF" stroke="#5595DF" stroke-width="1.1778" stroke-miterlimit="10" cx="607.6" cy="470.3" r="3.3"/>
<rect x="508.2" y="420.2" fill="#5595DF" stroke="#5595DF" stroke-width="1.1778" stroke-miterlimit="10" width="75.4" height="66.7"/>
<polygon fill="#99BFEC" stroke="#99BFEC" stroke-width="1.4174" stroke-linecap="round" stroke-linejoin="round" stroke-miterlimit="10" points="
	507.4,419.8 505.4,415.9 586.3,415.9 583.6,419.6 "/>
<rect x="526.1" y="463" fill="#99BFEC" stroke="#99BFEC" stroke-width="0.4956" stroke-miterlimit="10" width="39.5" height="4.7"/>
<g>
	
		<rect x="527.7" y="467.2" fill="#99BFEC" stroke="#99BFEC" stroke-width="0.6554" stroke-miterlimit="10" width="4.4" height="20"/>
	
		<rect x="538.3" y="467.2" fill="#99BFEC" stroke="#99BFEC" stroke-width="0.6554" stroke-miterlimit="10" width="4.4" height="20"/>
	<rect x="549" y="467.2" fill="#99BFEC" stroke="#99BFEC" stroke-width="0.6554" stroke-miterlimit="10" width="4.4" height="20"/>
	
		<rect x="559.6" y="467.2" fill="#99BFEC" stroke="#99BFEC" stroke-width="0.6554" stroke-miterlimit="10" width="4.4" height="20"/>
</g>
<circle fill="#99BFEC" stroke="#99BFEC" stroke-width="0.7137" stroke-miterlimit="10" cx="524.9" cy="433.6" r="3.3"/>
<circle fill="#99BFEC" stroke="#99BFEC" stroke-width="0.7137" stroke-miterlimit="10" cx="538.7" cy="433.6" r="3.3"/>
<circle fill="#99BFEC" stroke="#99BFEC" stroke-width="0.7137" stroke-miterlimit="10" cx="524.9" cy="446.7" r="3.3"/>
<circle fill="#99BFEC" stroke="#99BFEC" stroke-width="0.7137" stroke-miterlimit="10" cx="538.7" cy="446.7" r="3.3"/>
<circle fill="#99BFEC" stroke="#99BFEC" stroke-width="0.7137" stroke-miterlimit="10" cx="553.1" cy="433.6" r="3.3"/>
<circle fill="#99BFEC" stroke="#99BFEC" stroke-width="0.7137" stroke-miterlimit="10" cx="566.8" cy="433.6" r="3.3"/>
<circle fill="#99BFEC" stroke="#99BFEC" stroke-width="0.7137" stroke-miterlimit="10" cx="553.1" cy="446.7" r="3.3"/>
<circle fill="#99BFEC" stroke="#99BFEC" stroke-width="0.7137" stroke-miterlimit="10" cx="566.8" cy="446.7" r="3.3"/>
<rect x="1019" y="438.5" fill="#5595DF" width="9.5" height="22"/>
<rect x="1048" y="438.5" fill="#5595DF" width="9.5" height="22"/>
<rect x="1033.2" y="433" fill="#5595DF" width="9.5" height="27.5"/>
<rect x="1062.8" y="435.5" fill="#5595DF" width="9.5" height="25"/>
<rect x="2041.5" y="327" fill-rule="evenodd" clip-rule="evenodd" fill="#99BFEC" stroke="#5595DF" stroke-width="4.9337" stroke-miterlimit="10" width="120" height="154.5"/>
<g>
	<path fill="#5595DF" d="M2064,393.2v-6.5h23.3v5.7l-8.7,8.3c4.7,0.8,9.3,3.3,9.3,9.7c0,6.6-4.7,11.3-12.4,11.3
		c-6.2,0-10.5-2.5-13.5-6l5.2-5c2.4,2.7,4.8,4.1,8.3,4.1c2.9,0,4.9-1.6,4.9-4.2c0-2.9-2.4-4.4-6.8-4.4h-3.2l-1.2-4.8l8.2-8.3H2064z"
		/>
	<path fill="#5595DF" d="M2093.8,421.2v-7.9h8v7.9H2093.8z"/>
	<path fill="#5595DF" d="M2121.8,421.8c-9.2,0-15.3-7.7-15.3-17.8c0-10.1,6.2-17.9,15.4-17.9c9.2,0,15.3,7.7,15.3,17.8
		S2131,421.8,2121.8,421.8z M2121.8,393c-4.6,0-7.5,4.6-7.5,11s3,11.1,7.6,11.1c4.6,0,7.5-4.6,7.5-11S2126.4,393,2121.8,393z"/>
</g>
<line fill="none" stroke="#5595DF" stroke-width="2.9114" stroke-linecap="round" stroke-linejoin="round" stroke-miterlimit="10" x1="2056.1" y1="367.2" x2="2118.6" y2="367.2"/>
<line fill="none" stroke="#5595DF" stroke-width="2.9114" stroke-linecap="round" stroke-linejoin="round" stroke-miterlimit="10" x1="2056.1" y1="349.9" x2="2118.6" y2="349.9"/>
<line fill="none" stroke="#5595DF" stroke-width="2.9114" stroke-linecap="round" stroke-linejoin="round" stroke-miterlimit="10" x1="2131.7" y1="367.2" x2="2146.5" y2="367.2"/>
<g>
	
		<line fill="none" stroke="#5595DF" stroke-width="2.9114" stroke-linecap="round" stroke-linejoin="round" stroke-miterlimit="10" x1="2131.7" y1="349.9" x2="2146.5" y2="349.9"/>
	
		<line fill="none" stroke="#5595DF" stroke-width="2.9114" stroke-linecap="round" stroke-linejoin="round" stroke-miterlimit="10" x1="2139.1" y1="342.5" x2="2139.1" y2="357.3"/>
</g>
<line fill="none" stroke="#5595DF" stroke-width="2.9114" stroke-linecap="round" stroke-linejoin="round" stroke-miterlimit="10" x1="2056.1" y1="459.7" x2="2118.6" y2="459.7"/>
<line fill="none" stroke="#5595DF" stroke-width="2.9114" stroke-linecap="round" stroke-linejoin="round" stroke-miterlimit="10" x1="2056.1" y1="442.4" x2="2118.6" y2="442.4"/>
<line fill="none" stroke="#5595DF" stroke-width="2.9114" stroke-linecap="round" stroke-linejoin="round" stroke-miterlimit="10" x1="2131.7" y1="459.7" x2="2146.5" y2="459.7"/>
<g>
	
		<line fill="none" stroke="#5595DF" stroke-width="2.9114" stroke-linecap="round" stroke-linejoin="round" stroke-miterlimit="10" x1="2131.7" y1="442.4" x2="2146.5" y2="442.4"/>
	
		<line fill="none" stroke="#5595DF" stroke-width="2.9114" stroke-linecap="round" stroke-linejoin="round" stroke-miterlimit="10" x1="2139.1" y1="435" x2="2139.1" y2="449.8"/>
</g>
</svg>
