<?xml version="1.0" encoding="utf-8"?>
<!-- Generator: Adobe Illustrator 18.0.0, SVG Export Plug-In . SVG Version: 6.00 Build 0)  -->
<!DOCTYPE svg PUBLIC "-//W3C//DTD SVG 1.1//EN" "http://www.w3.org/Graphics/SVG/1.1/DTD/svg11.dtd">
<svg version="1.1" id="Layer_1" xmlns="http://www.w3.org/2000/svg" xmlns:xlink="http://www.w3.org/1999/xlink" x="0px" y="0px"
	 viewBox="0 0 200 200" enable-background="new 0 0 200 200" xml:space="preserve">
<g>
	
		<rect x="40.4" y="22" fill-rule="evenodd" clip-rule="evenodd" fill="#9CBFE5" stroke="#5C94CF" stroke-width="4.9337" stroke-miterlimit="10" width="120" height="154.5"/>
	<g>
		<path fill="#5C94CF" d="M62.9,88.2v-6.5h23.3v5.7l-8.7,8.3c4.7,0.8,9.3,3.3,9.3,9.7c0,6.6-4.7,11.3-12.4,11.3
			c-6.2,0-10.5-2.5-13.5-6l5.2-5c2.4,2.7,4.8,4.1,8.3,4.1c2.9,0,4.9-1.6,4.9-4.2c0-2.9-2.4-4.4-6.8-4.4h-3.2l-1.2-4.8l8.2-8.3H62.9z
			"/>
		<path fill="#5C94CF" d="M92.7,116.2v-7.9h8v7.9H92.7z"/>
		<path fill="#5C94CF" d="M120.7,116.8c-9.2,0-15.3-7.7-15.3-17.8c0-10.1,6.2-17.9,15.4-17.9s15.3,7.7,15.3,17.8
			S130,116.8,120.7,116.8z M120.7,88c-4.6,0-7.5,4.6-7.5,11c0,6.4,3,11.1,7.6,11.1c4.6,0,7.5-4.6,7.5-11S125.3,88,120.7,88z"/>
	</g>
	
		<line fill="none" stroke="#5C94CF" stroke-width="2.9114" stroke-linecap="round" stroke-linejoin="round" stroke-miterlimit="10" x1="55" y1="62.2" x2="117.5" y2="62.2"/>
	
		<line fill="none" stroke="#5C94CF" stroke-width="2.9114" stroke-linecap="round" stroke-linejoin="round" stroke-miterlimit="10" x1="55" y1="44.9" x2="117.5" y2="44.9"/>
	
		<line fill="none" stroke="#5C94CF" stroke-width="2.9114" stroke-linecap="round" stroke-linejoin="round" stroke-miterlimit="10" x1="130.6" y1="62.2" x2="145.4" y2="62.2"/>
	<g>
		
			<line fill="none" stroke="#5C94CF" stroke-width="2.9114" stroke-linecap="round" stroke-linejoin="round" stroke-miterlimit="10" x1="130.6" y1="44.9" x2="145.4" y2="44.9"/>
		
			<line fill="none" stroke="#5C94CF" stroke-width="2.9114" stroke-linecap="round" stroke-linejoin="round" stroke-miterlimit="10" x1="138" y1="37.5" x2="138" y2="52.3"/>
	</g>
	
		<line fill="none" stroke="#5C94CF" stroke-width="2.9114" stroke-linecap="round" stroke-linejoin="round" stroke-miterlimit="10" x1="55" y1="154.7" x2="117.5" y2="154.7"/>
	
		<line fill="none" stroke="#5C94CF" stroke-width="2.9114" stroke-linecap="round" stroke-linejoin="round" stroke-miterlimit="10" x1="55" y1="137.4" x2="117.5" y2="137.4"/>
	
		<line fill="none" stroke="#5C94CF" stroke-width="2.9114" stroke-linecap="round" stroke-linejoin="round" stroke-miterlimit="10" x1="130.6" y1="154.7" x2="145.4" y2="154.7"/>
	<g>
		
			<line fill="none" stroke="#5C94CF" stroke-width="2.9114" stroke-linecap="round" stroke-linejoin="round" stroke-miterlimit="10" x1="130.6" y1="137.4" x2="145.4" y2="137.4"/>
		
			<line fill="none" stroke="#5C94CF" stroke-width="2.9114" stroke-linecap="round" stroke-linejoin="round" stroke-miterlimit="10" x1="138" y1="130" x2="138" y2="144.8"/>
	</g>
</g>
</svg>
