<?xml version="1.0" encoding="utf-8"?>
<!-- Generator: Adobe Illustrator 18.0.0, SVG Export Plug-In . SVG Version: 6.00 Build 0)  -->
<!DOCTYPE svg PUBLIC "-//W3C//DTD SVG 1.1//EN" "http://www.w3.org/Graphics/SVG/1.1/DTD/svg11.dtd">
<svg version="1.1" id="Layer_1" xmlns="http://www.w3.org/2000/svg" xmlns:xlink="http://www.w3.org/1999/xlink" x="0px" y="0px"
	 viewBox="0 0 200 200" enable-background="new 0 0 200 200" xml:space="preserve">
<g>
	
		<rect x="81.7" y="90.9" fill="#9CBFE5" stroke="#9CBFE5" stroke-width="1.4265" stroke-miterlimit="10" width="30.4" height="28.5"/>
	<path fill="#2FAC93" d="M86.3,113.9c-0.3,0-0.6,0-0.9,0.1c-0.7-1.6-2.2-2.7-4.1-2.7c-1,0-1.9,0.3-2.7,0.9c-0.3-0.1-0.6-0.1-0.9-0.1
		c-2.2,0-4,1.8-4,4s1.8,4,4,4c0.6,0,1.2-0.1,1.7-0.4c0.6,0.3,1.2,0.4,1.8,0.4c1,0,1.9-0.3,2.7-0.9c0.6,0.6,1.4,0.9,2.2,0.9
		c1.8,0,3.2-1.4,3.2-3.2C89.5,115.3,88.1,113.9,86.3,113.9z"/>
	<path fill="#2FAC93" d="M106.4,114.3c0.3,0,0.6,0,0.9,0.1c0.7-1.6,2.2-2.7,4.1-2.7c1,0,1.9,0.3,2.7,0.9c0.3-0.1,0.6-0.1,0.9-0.1
		c2.2,0,4,1.8,4,4s-1.8,4-4,4c-0.6,0-1.2-0.1-1.7-0.4c-0.6,0.3-1.2,0.4-1.8,0.4c-1,0-1.9-0.3-2.7-0.9c-0.6,0.6-1.4,0.9-2.2,0.9
		c-1.8,0-3.2-1.4-3.2-3.2C103.3,115.8,104.7,114.3,106.4,114.3z"/>
	
		<polygon fill="#5C94CF" stroke="#5C94CF" stroke-width="1.8908" stroke-linecap="round" stroke-linejoin="round" stroke-miterlimit="10" points="
		109.8,86.7 109.8,76.9 104.5,76.9 104.5,80.6 96.9,72 78.9,92.4 96.9,92.4 114.9,92.4 	"/>
	
		<rect x="92.7" y="106.5" fill="#5C94CF" stroke="#5C94CF" stroke-width="2.6154" stroke-linecap="round" stroke-linejoin="round" stroke-miterlimit="10" width="8.4" height="12.8"/>
</g>
</svg>
