<?xml version="1.0" encoding="utf-8"?>
<!-- Generator: Adobe Illustrator 17.1.0, SVG Export Plug-In . SVG Version: 6.00 Build 0)  -->
<!DOCTYPE svg PUBLIC "-//W3C//DTD SVG 1.1//EN" "http://www.w3.org/Graphics/SVG/1.1/DTD/svg11.dtd">
<svg version="1.1" id="Layer_1" xmlns="http://www.w3.org/2000/svg" xmlns:xlink="http://www.w3.org/1999/xlink" x="0px" y="0px"
	 viewBox="0 0 52.57 100" enable-background="new 0 0 52.57 100" xml:space="preserve">
<path fill="#79725F" stroke="#79725F" stroke-width="0.8401" stroke-miterlimit="10" d="M37.811,30.941h-4.883
	c3.526-2.438,5.874-6.726,5.874-11.621c0-7.598-5.639-13.758-12.594-13.758c-6.956,0-12.594,6.16-12.594,13.758
	c0,4.896,2.348,9.183,5.874,11.621h-4.883c-3.18,0-5.758,2.474-5.758,5.526V69.94c0,2.173,1.31,4.047,3.21,4.95v13.479
	c0,2.488,2.102,4.505,4.694,4.505h18.917c2.592,0,4.694-2.017,4.694-4.505V74.89c1.9-0.903,3.21-2.777,3.21-4.95V36.468
	C43.57,33.416,40.992,30.941,37.811,30.941z"/>
</svg>
