<?xml version="1.0" encoding="utf-8"?>
<!-- Generator: Adobe Illustrator 17.1.0, SVG Export Plug-In . SVG Version: 6.00 Build 0)  -->
<!DOCTYPE svg PUBLIC "-//W3C//DTD SVG 1.1//EN" "http://www.w3.org/Graphics/SVG/1.1/DTD/svg11.dtd">
<svg version="1.1" id="Layer_1" xmlns="http://www.w3.org/2000/svg" xmlns:xlink="http://www.w3.org/1999/xlink" x="0px" y="0px"
	 viewBox="0 0 173.5 100" enable-background="new 0 0 173.5 100" xml:space="preserve">
<g>
	<rect x="94.608" y="72.266" fill="#E3C48F" width="6.149" height="21.623"/>
	<rect x="82.82" y="72.266" fill="#E3C48F" width="6.149" height="21.623"/>
	<path fill="#E3C48F" d="M169.544,41.028c-0.117-0.232-0.355-0.377-0.614-0.377h-40.511V19.123c0-0.096-0.02-0.187-0.056-0.27
		l2.967-4.025c0.154-0.209,0.178-0.487,0.06-0.718s-0.355-0.378-0.614-0.378H41.014c-0.238,0-0.459,0.123-0.585,0.325
		c-0.125,0.202-0.137,0.455-0.031,0.668l2.143,4.326c0.116,0.234,0.355,0.382,0.616,0.382c0.001,0,0.001,0,0.002,0l0.212-0.001
		v21.219H5.322c-0.238,0-0.459,0.123-0.585,0.325c-0.125,0.202-0.137,0.455-0.031,0.668l2.071,4.181v47.376
		c0,0.38,0.308,0.688,0.688,0.688h57.929V72.266h-1.801v-5.967h44.604v5.967h-1.801v21.623h59.15c0.38,0,0.688-0.308,0.688-0.688
		v-47.16c0.091-0.048,0.171-0.116,0.233-0.201l3.017-4.093C169.637,41.538,169.661,41.26,169.544,41.028z M17.235,78.38
		c-1.987,0-3.604-1.616-3.604-3.604c0-1.987,1.616-3.604,3.604-3.604s3.604,1.616,3.604,3.604
		C20.838,76.764,19.222,78.38,17.235,78.38z M17.235,63.829c-1.987,0-3.604-1.616-3.604-3.604c0-1.987,1.616-3.604,3.604-3.604
		s3.604,1.616,3.604,3.604C20.838,62.213,19.222,63.829,17.235,63.829z M32.513,78.38c-1.987,0-3.604-1.616-3.604-3.604
		c0-1.987,1.616-3.604,3.604-3.604s3.604,1.616,3.604,3.604C36.117,76.764,34.5,78.38,32.513,78.38z M32.513,63.829
		c-1.987,0-3.604-1.616-3.604-3.604c0-1.987,1.616-3.604,3.604-3.604s3.604,1.616,3.604,3.604
		C36.117,62.213,34.5,63.829,32.513,63.829z M62.613,51.931c-1.845,0-3.346-1.501-3.346-3.346c0-1.845,1.501-3.346,3.346-3.346
		c1.845,0,3.346,1.501,3.346,3.346C65.959,50.43,64.458,51.931,62.613,51.931z M62.613,37.38c-1.845,0-3.346-1.501-3.346-3.346
		c0-1.845,1.501-3.346,3.346-3.346c1.845,0,3.346,1.501,3.346,3.346C65.959,35.879,64.458,37.38,62.613,37.38z M77.892,51.931
		c-1.845,0-3.346-1.501-3.346-3.346c0-1.845,1.501-3.346,3.346-3.346s3.346,1.501,3.346,3.346
		C81.238,50.43,79.737,51.931,77.892,51.931z M77.892,37.38c-1.845,0-3.346-1.501-3.346-3.346c0-1.845,1.501-3.346,3.346-3.346
		s3.346,1.501,3.346,3.346C81.238,35.879,79.737,37.38,77.892,37.38z M93.898,51.931c-1.845,0-3.346-1.501-3.346-3.346
		c0-1.845,1.501-3.346,3.346-3.346c1.845,0,3.346,1.501,3.346,3.346C97.244,50.43,95.743,51.931,93.898,51.931z M93.898,37.38
		c-1.845,0-3.346-1.501-3.346-3.346c0-1.845,1.501-3.346,3.346-3.346c1.845,0,3.346,1.501,3.346,3.346
		C97.244,35.879,95.743,37.38,93.898,37.38z M109.176,51.931c-1.845,0-3.346-1.501-3.346-3.346c0-1.845,1.501-3.346,3.346-3.346
		s3.346,1.501,3.346,3.346C112.523,50.43,111.022,51.931,109.176,51.931z M109.176,37.38c-1.845,0-3.346-1.501-3.346-3.346
		c0-1.845,1.501-3.346,3.346-3.346s3.346,1.501,3.346,3.346C112.523,35.879,111.022,37.38,109.176,37.38z M139.1,78.38
		c-1.987,0-3.604-1.616-3.604-3.604c0-1.987,1.616-3.604,3.604-3.604s3.604,1.616,3.604,3.604
		C142.704,76.764,141.087,78.38,139.1,78.38z M139.1,63.829c-1.987,0-3.604-1.616-3.604-3.604c0-1.987,1.616-3.604,3.604-3.604
		s3.604,1.616,3.604,3.604C142.704,62.213,141.087,63.829,139.1,63.829z M154.379,78.38c-1.987,0-3.604-1.616-3.604-3.604
		c0-1.987,1.616-3.604,3.604-3.604s3.604,1.616,3.604,3.604C157.982,76.764,156.366,78.38,154.379,78.38z M154.379,63.829
		c-1.987,0-3.604-1.616-3.604-3.604c0-1.987,1.616-3.604,3.604-3.604s3.604,1.616,3.604,3.604
		C157.982,62.213,156.366,63.829,154.379,63.829z"/>
	<rect x="71.032" y="72.266" fill="#E3C48F" width="6.149" height="21.623"/>
</g>
</svg>
