<?xml version="1.0" encoding="utf-8"?>
<!-- Generator: Adobe Illustrator 18.0.0, SVG Export Plug-In . SVG Version: 6.00 Build 0)  -->
<!DOCTYPE svg PUBLIC "-//W3C//DTD SVG 1.1//EN" "http://www.w3.org/Graphics/SVG/1.1/DTD/svg11.dtd">
<svg version="1.1" id="Layer_1" xmlns="http://www.w3.org/2000/svg" xmlns:xlink="http://www.w3.org/1999/xlink" x="0px" y="0px"
	 viewBox="0 0 236.7 200" enable-background="new 0 0 236.7 200" xml:space="preserve">
<g>
	<g>
		<rect x="8.1" y="77" fill="#AB8B30" stroke="#AB8B30" stroke-width="1.797" stroke-miterlimit="10" width="69.7" height="65.3"/>
		<polygon fill="#E3C48E" stroke="#E3C48E" stroke-width="1.797" stroke-miterlimit="10" points="8.1,77 5.2,71 81.6,71 77.4,76.7 
					"/>
		<circle fill="#E3C48E" stroke="#E3C48E" stroke-width="1.797" stroke-miterlimit="10" cx="21.6" cy="97" r="5"/>
		<circle fill="#E3C48E" stroke="#E3C48E" stroke-width="1.797" stroke-miterlimit="10" cx="42.6" cy="97" r="5"/>
		<circle fill="#E3C48E" stroke="#E3C48E" stroke-width="1.797" stroke-miterlimit="10" cx="21.6" cy="117" r="5"/>
		<circle fill="#E3C48E" stroke="#E3C48E" stroke-width="1.797" stroke-miterlimit="10" cx="42.6" cy="117" r="5"/>
	</g>
	<g>
		
			<rect x="155.7" y="77" fill="#AB8B30" stroke="#AB8B30" stroke-width="1.089" stroke-miterlimit="10" width="69.7" height="65.3"/>
		<polygon fill="#E3C48E" stroke="#E3C48E" stroke-width="1.797" stroke-miterlimit="10" points="156.6,77 153.7,71 230.1,71 
			225.9,76.7 		"/>
		<circle fill="#E3C48E" stroke="#E3C48E" stroke-width="1.797" stroke-miterlimit="10" cx="189.1" cy="97" r="5"/>
		<circle fill="#E3C48E" stroke="#E3C48E" stroke-width="1.797" stroke-miterlimit="10" cx="210.1" cy="97" r="5"/>
		<circle fill="#E3C48E" stroke="#E3C48E" stroke-width="1.797" stroke-miterlimit="10" cx="189.1" cy="117" r="5"/>
		<circle fill="#E3C48E" stroke="#E3C48E" stroke-width="1.797" stroke-miterlimit="10" cx="210.1" cy="117" r="5"/>
	</g>
	
		<rect x="58.4" y="40.5" fill="#E3C48E" stroke="#E3C48E" stroke-width="1.797" stroke-miterlimit="10" width="115" height="101.8"/>
	
		<polygon fill="#AB8B30" stroke="#AB8B30" stroke-width="2.1626" stroke-linecap="round" stroke-linejoin="round" stroke-miterlimit="10" points="
		57.2,40 54.3,34 177.6,34 173.5,39.7 	"/>
	<g>
		
			<rect x="85.8" y="105.8" fill="#AB8B30" stroke="#AB8B30" stroke-width="0.7561" stroke-miterlimit="10" width="60.3" height="7.2"/>
		<g>
			<rect x="88.3" y="112.3" fill="#AB8B30" stroke="#AB8B30" stroke-miterlimit="10" width="6.8" height="30.6"/>
			<rect x="104.5" y="112.3" fill="#AB8B30" stroke="#AB8B30" stroke-miterlimit="10" width="6.8" height="30.6"/>
			<rect x="120.7" y="112.3" fill="#AB8B30" stroke="#AB8B30" stroke-miterlimit="10" width="6.8" height="30.6"/>
			<rect x="136.9" y="112.3" fill="#AB8B30" stroke="#AB8B30" stroke-miterlimit="10" width="6.8" height="30.6"/>
		</g>
	</g>
	<g>
		<circle fill="#AB8B30" stroke="#AB8B30" stroke-width="1.089" stroke-miterlimit="10" cx="83.9" cy="61" r="5"/>
		<circle fill="#AB8B30" stroke="#AB8B30" stroke-width="1.089" stroke-miterlimit="10" cx="104.9" cy="61" r="5"/>
		<circle fill="#AB8B30" stroke="#AB8B30" stroke-width="1.089" stroke-miterlimit="10" cx="83.9" cy="81" r="5"/>
		<circle fill="#AB8B30" stroke="#AB8B30" stroke-width="1.089" stroke-miterlimit="10" cx="104.9" cy="81" r="5"/>
		<circle fill="#AB8B30" stroke="#AB8B30" stroke-width="1.089" stroke-miterlimit="10" cx="126.9" cy="61" r="5"/>
		<circle fill="#AB8B30" stroke="#AB8B30" stroke-width="1.089" stroke-miterlimit="10" cx="147.9" cy="61" r="5"/>
		<circle fill="#AB8B30" stroke="#AB8B30" stroke-width="1.089" stroke-miterlimit="10" cx="126.9" cy="81" r="5"/>
		<circle fill="#AB8B30" stroke="#AB8B30" stroke-width="1.089" stroke-miterlimit="10" cx="147.9" cy="81" r="5"/>
	</g>
	<path fill="#7A7360" stroke="#7A7360" stroke-width="0.8401" stroke-miterlimit="10" d="M177.9,104.2H173c3.5-2.4,5.9-6.7,5.9-11.6
		c0-7.6-5.6-13.8-12.6-13.8c-7,0-12.6,6.2-12.6,13.8c0,4.9,2.3,9.2,5.9,11.6h-4.9c-3.2,0-5.8,2.5-5.8,5.5v33.5c0,2.2,1.3,4,3.2,4.9
		v13.5c0,2.5,2.1,4.5,4.7,4.5h18.9c2.6,0,4.7-2,4.7-4.5v-13.5c1.9-0.9,3.2-2.8,3.2-4.9v-33.5C183.6,106.6,181.1,104.2,177.9,104.2z"
		/>
	
		<rect x="179.6" y="124.3" transform="matrix(0.9755 0.22 -0.22 0.9755 34.644 -37.0359)" fill="#E3C48E" stroke="#E3C48E" stroke-width="1.8908" stroke-linecap="round" stroke-linejoin="round" stroke-miterlimit="10" width="8" height="25.3"/>
</g>
</svg>
