<?xml version="1.0" encoding="utf-8"?>
<!-- Generator: Adobe Illustrator 18.0.0, SVG Export Plug-In . SVG Version: 6.00 Build 0)  -->
<!DOCTYPE svg PUBLIC "-//W3C//DTD SVG 1.1//EN" "http://www.w3.org/Graphics/SVG/1.1/DTD/svg11.dtd">
<svg version="1.1" id="Layer_1" xmlns="http://www.w3.org/2000/svg" xmlns:xlink="http://www.w3.org/1999/xlink" x="0px" y="0px"
	 viewBox="0 0 200 200" enable-background="new 0 0 200 200" xml:space="preserve">
<g>
	
		<rect x="53.3" y="75.8" fill="#9CBFE5" stroke="#9CBFE5" stroke-width="1.4265" stroke-miterlimit="10" width="91.3" height="85.6"/>
	<path fill="#2FAC93" d="M67.1,144.7c-0.9,0-1.7,0.1-2.6,0.4c-2.1-4.7-6.7-8-12.2-8c-3,0-5.8,1-8,2.7c-0.9-0.2-1.8-0.3-2.7-0.3
		c-6.7,0-12.1,5.4-12.1,12.1c0,6.7,5.4,12.1,12.1,12.1c1.9,0,3.6-0.4,5.2-1.2c1.7,0.8,3.5,1.2,5.5,1.2c3,0,5.8-1,8.1-2.7
		c1.7,1.7,4.1,2.7,6.7,2.7c5.3,0,9.5-4.3,9.5-9.5C76.7,149,72.4,144.7,67.1,144.7z"/>
	<path fill="#2FAC93" d="M127.5,146.2c0.9,0,1.7,0.1,2.6,0.4c2.1-4.7,6.7-8,12.2-8c3,0,5.8,1,8,2.7c0.9-0.2,1.8-0.3,2.7-0.3
		c6.7,0,12.1,5.4,12.1,12.1c0,6.7-5.4,12.1-12.1,12.1c-1.9,0-3.6-0.4-5.2-1.2c-1.7,0.8-3.5,1.2-5.5,1.2c-3,0-5.8-1-8.1-2.7
		c-1.7,1.7-4.1,2.7-6.7,2.7c-5.3,0-9.5-4.3-9.5-9.5C118,150.4,122.3,146.2,127.5,146.2z"/>
	
		<polygon fill="#5C94CF" stroke="#5C94CF" stroke-width="1.8908" stroke-linecap="round" stroke-linejoin="round" stroke-miterlimit="10" points="
		137.7,63.2 137.7,33.8 121.7,33.8 121.7,45 98.9,19.1 44.9,80.4 98.9,80.4 152.9,80.4 	"/>
	
		<rect x="86.3" y="122.7" fill="#5C94CF" stroke="#5C94CF" stroke-width="2.6154" stroke-linecap="round" stroke-linejoin="round" stroke-miterlimit="10" width="25.3" height="38.4"/>
</g>
</svg>
